<mxfile host="65bd71144e">
    <diagram id="pAi_KdXQo00Ve_mjZ8XZ" name="PÃ¡gina-1">
        <mxGraphModel dx="867" dy="472" grid="1" gridSize="10" guides="1" tooltips="1" connect="1" arrows="1" fold="1" page="1" pageScale="1" pageWidth="827" pageHeight="1169" math="0" shadow="0">
            <root>
                <mxCell id="0"/>
                <mxCell id="1" parent="0"/>
                <mxCell id="4" value="" style="edgeStyle=none;html=1;fontSize=18;" parent="1" source="2" target="3" edge="1">
                    <mxGeometry relative="1" as="geometry"/>
                </mxCell>
                <mxCell id="2" value="&lt;font style=&quot;font-size: 18px&quot;&gt;Inicio&lt;/font&gt;" style="ellipse;whiteSpace=wrap;html=1;fillColor=#6a00ff;fontColor=#ffffff;strokeColor=#3700CC;" parent="1" vertex="1">
                    <mxGeometry x="250" y="80" width="120" height="80" as="geometry"/>
                </mxCell>
                <mxCell id="6" style="edgeStyle=none;html=1;fontSize=18;" parent="1" source="3" target="5" edge="1">
                    <mxGeometry relative="1" as="geometry"/>
                </mxCell>
                <mxCell id="3" value="&lt;font style=&quot;font-size: 18px&quot;&gt;ingr&lt;/font&gt;" style="shape=parallelogram;perimeter=parallelogramPerimeter;whiteSpace=wrap;html=1;fixedSize=1;fillColor=#76608a;fontColor=#ffffff;strokeColor=#432D57;" parent="1" vertex="1">
                    <mxGeometry x="250" y="210" width="120" height="60" as="geometry"/>
                </mxCell>
                <mxCell id="21" style="edgeStyle=none;html=1;entryX=0.5;entryY=0;entryDx=0;entryDy=0;fontSize=18;" parent="1" source="5" target="34" edge="1">
                    <mxGeometry relative="1" as="geometry">
                        <Array as="points">
                            <mxPoint x="500" y="410"/>
                        </Array>
                        <mxPoint x="500" y="495" as="targetPoint"/>
                    </mxGeometry>
                </mxCell>
                <mxCell id="22" style="edgeStyle=none;html=1;exitX=0;exitY=0.5;exitDx=0;exitDy=0;entryX=0.5;entryY=0;entryDx=0;entryDy=0;fontSize=18;" parent="1" source="5" target="14" edge="1">
                    <mxGeometry relative="1" as="geometry">
                        <Array as="points">
                            <mxPoint x="130" y="410"/>
                        </Array>
                    </mxGeometry>
                </mxCell>
                <mxCell id="5" value="ingr&amp;gt;945200" style="rhombus;whiteSpace=wrap;html=1;fontSize=18;fillColor=#e3c800;fontColor=#000000;strokeColor=#B09500;" parent="1" vertex="1">
                    <mxGeometry x="250" y="340" width="130" height="140" as="geometry"/>
                </mxCell>
                <mxCell id="24" style="edgeStyle=none;html=1;entryX=0;entryY=0.5;entryDx=0;entryDy=0;fontSize=18;" parent="1" source="14" target="23" edge="1">
                    <mxGeometry relative="1" as="geometry">
                        <Array as="points">
                            <mxPoint x="130" y="950"/>
                        </Array>
                    </mxGeometry>
                </mxCell>
                <mxCell id="14" value="Denegado" style="shape=document;whiteSpace=wrap;html=1;boundedLbl=1;fontSize=18;fillColor=#9933FF;gradientColor=#660033;" parent="1" vertex="1">
                    <mxGeometry x="50" y="500" width="160" height="80" as="geometry"/>
                </mxCell>
                <mxCell id="16" value="Falso" style="text;strokeColor=#6F0000;fillColor=#a20025;html=1;fontSize=24;fontStyle=1;verticalAlign=middle;align=center;fontColor=#ffffff;gradientColor=#FF0000;" parent="1" vertex="1">
                    <mxGeometry x="120" y="350" width="100" height="40" as="geometry"/>
                </mxCell>
                <mxCell id="17" value="Verdadero" style="text;strokeColor=#005700;fillColor=#008a00;html=1;fontSize=24;fontStyle=1;verticalAlign=middle;align=center;fontColor=#ffffff;gradientColor=#00FF00;" parent="1" vertex="1">
                    <mxGeometry x="400" y="350" width="130" height="40" as="geometry"/>
                </mxCell>
                <mxCell id="23" value="Fin" style="ellipse;whiteSpace=wrap;html=1;fontSize=18;fillColor=#6a00ff;fontColor=#ffffff;strokeColor=#3700CC;" parent="1" vertex="1">
                    <mxGeometry x="235" y="910" width="120" height="80" as="geometry"/>
                </mxCell>
                <mxCell id="26" style="edgeStyle=none;html=1;entryX=0.5;entryY=0;entryDx=0;entryDy=0;fontSize=18;" parent="1" source="28" target="30" edge="1">
                    <mxGeometry relative="1" as="geometry">
                        <Array as="points">
                            <mxPoint x="685" y="655"/>
                        </Array>
                    </mxGeometry>
                </mxCell>
                <mxCell id="27" style="edgeStyle=none;html=1;exitX=0;exitY=0.5;exitDx=0;exitDy=0;entryX=0.5;entryY=0;entryDx=0;entryDy=0;fontSize=18;" parent="1" source="28" target="29" edge="1">
                    <mxGeometry relative="1" as="geometry">
                        <Array as="points">
                            <mxPoint x="295" y="655"/>
                        </Array>
                    </mxGeometry>
                </mxCell>
                <mxCell id="28" value="deudas==2" style="rhombus;whiteSpace=wrap;html=1;fontSize=18;fillColor=#e3c800;fontColor=#000000;strokeColor=#B09500;" parent="1" vertex="1">
                    <mxGeometry x="435" y="585" width="130" height="140" as="geometry"/>
                </mxCell>
                <mxCell id="36" style="edgeStyle=none;html=1;entryX=0.5;entryY=0;entryDx=0;entryDy=0;" parent="1" source="29" target="23" edge="1">
                    <mxGeometry relative="1" as="geometry"/>
                </mxCell>
                <mxCell id="29" value="Denegado" style="shape=document;whiteSpace=wrap;html=1;boundedLbl=1;fontSize=18;fillColor=#9933FF;gradientColor=#660033;" parent="1" vertex="1">
                    <mxGeometry x="215" y="745" width="160" height="80" as="geometry"/>
                </mxCell>
                <mxCell id="37" style="edgeStyle=none;html=1;entryX=1;entryY=0.5;entryDx=0;entryDy=0;" parent="1" source="30" target="23" edge="1">
                    <mxGeometry relative="1" as="geometry">
                        <Array as="points">
                            <mxPoint x="685" y="950"/>
                        </Array>
                    </mxGeometry>
                </mxCell>
                <mxCell id="30" value="Aprobado" style="shape=document;whiteSpace=wrap;html=1;boundedLbl=1;fontSize=18;gradientColor=#00994D;fillColor=#994C00;" parent="1" vertex="1">
                    <mxGeometry x="605" y="740" width="160" height="90" as="geometry"/>
                </mxCell>
                <mxCell id="31" value="Falso" style="text;strokeColor=#6F0000;fillColor=#a20025;html=1;fontSize=24;fontStyle=1;verticalAlign=middle;align=center;fontColor=#ffffff;gradientColor=#FF0000;" parent="1" vertex="1">
                    <mxGeometry x="305" y="595" width="100" height="40" as="geometry"/>
                </mxCell>
                <mxCell id="32" value="Verdadero" style="text;strokeColor=#005700;fillColor=#008a00;html=1;fontSize=24;fontStyle=1;verticalAlign=middle;align=center;fontColor=#ffffff;gradientColor=#00FF00;" parent="1" vertex="1">
                    <mxGeometry x="585" y="595" width="130" height="40" as="geometry"/>
                </mxCell>
                <mxCell id="35" style="edgeStyle=none;html=1;entryX=0.5;entryY=0;entryDx=0;entryDy=0;" parent="1" source="34" target="28" edge="1">
                    <mxGeometry relative="1" as="geometry"/>
                </mxCell>
                <mxCell id="34" value="&lt;font style=&quot;font-size: 18px&quot;&gt;deudas&lt;/font&gt;" style="shape=parallelogram;perimeter=parallelogramPerimeter;whiteSpace=wrap;html=1;fixedSize=1;fillColor=#76608a;fontColor=#ffffff;strokeColor=#432D57;" parent="1" vertex="1">
                    <mxGeometry x="440" y="490" width="120" height="60" as="geometry"/>
                </mxCell>
            </root>
        </mxGraphModel>
    </diagram>
</mxfile>